/* XPM */
static char *c29b759c53c644e18ddffbac9aa46010RUXqhfwsQ6Mg9Qlc[] = {
/* columns rows colors chars-per-pixel */
"64 64 214 2 ",
"   c None",
".  c #3C0003",
"X  c #34000A",
"o  c #3B0006",
"O  c #2A0014",
"+  c #270019",
"@  c #35001A",
"#  c #3B001B",
"$  c #3C0014",
"%  c #2F0005",
"&  c #1A0026",
"*  c #1B002B",
"=  c #13002D",
"-  c #02003C",
";  c #0A0038",
":  c #170033",
">  c #1C0036",
",  c #16003C",
"<  c #1A003A",
"1  c #2C002C",
"2  c #270027",
"3  c #3B002C",
"4  c #350029",
"5  c #2E0038",
"6  c #280034",
"7  c #3B0033",
"8  c #34003A",
"9  c #3B003B",
"0  c #350034",
"q  c #420001",
"w  c #4B0001",
"e  c #410009",
"r  c #550000",
"t  c #5A0003",
"y  c #5D0009",
"u  c #420019",
"i  c #570015",
"p  c #650002",
"a  c #760007",
"s  c #7A0017",
"d  c #690017",
"f  c #470024",
"g  c #570028",
"h  c #440039",
"j  c #570033",
"k  c #6C0023",
"l  c #6D0032",
"z  c #63003E",
"x  c #6D003C",
"c  c #730034",
"v  c #760039",
"b  c #020044",
"n  c #01004E",
"m  c #0B004B",
"M  c #150049",
"N  c #000055",
"B  c #01005A",
"V  c #080058",
"C  c #23004C",
"Z  c #28004A",
"A  c #360047",
"S  c #2A0052",
"D  c #210054",
"F  c #35005B",
"G  c #0E0065",
"H  c #04006A",
"J  c #020078",
"K  c #1D0072",
"L  c #160061",
"P  c #2B0066",
"I  c #2D006D",
"U  c #24006B",
"Y  c #35006A",
"T  c #250078",
"R  c #350076",
"E  c #4F0040",
"W  c #440056",
"Q  c #5F0049",
"!  c #690046",
"~  c #7A005B",
"^  c #750053",
"/  c #420069",
"(  c #49006D",
")  c #510072",
"_  c #5B007B",
"`  c #4D0071",
"'  c #6C006A",
"]  c #6E0067",
"[  c #7D0066",
"{  c #780069",
"}  c #690070",
"|  c #65007B",
" . c #6A0079",
".. c #670076",
"X. c #7C0074",
"o. c #74007D",
"O. c #790078",
"+. c #740075",
"@. c #8A0004",
"#. c #830005",
"$. c #9A0004",
"%. c #880016",
"&. c #930017",
"*. c #AC0002",
"=. c #A70009",
"-. c #B80006",
";. c #BD0014",
":. c #A90012",
">. c #850038",
",. c #940031",
"<. c #920028",
"1. c #AC002A",
"2. c #BA0029",
"3. c #AC003A",
"4. c #BB0035",
"5. c #B3003D",
"6. c #B00034",
"7. c #CC0003",
"8. c #C60004",
"9. c #D20001",
"0. c #D70009",
"q. c #CA0019",
"w. c #DA0014",
"e. c #D2001C",
"r. c #D40016",
"t. c #EC0005",
"y. c #E2000B",
"u. c #E80009",
"i. c #E70005",
"p. c #C30024",
"a. c #CA0024",
"s. c #C2002C",
"d. c #840043",
"f. c #8A0043",
"g. c #92004C",
"h. c #9A0045",
"j. c #8F005C",
"k. c #8C0053",
"l. c #960054",
"z. c #9B0055",
"x. c #94005C",
"c. c #990058",
"v. c #AA0045",
"b. c #A2004D",
"n. c #AB0048",
"m. c #A20050",
"M. c #870067",
"N. c #8C0064",
"B. c #84006C",
"V. c #880068",
"C. c #910060",
"Z. c #800070",
"A. c #030082",
"S. c #0B008A",
"D. c #03009C",
"F. c #000097",
"G. c #190098",
"H. c #1A0082",
"J. c #3B0085",
"K. c #35008B",
"L. c #2A0099",
"P. c #3E009D",
"I. c #0200AB",
"U. c #0700A3",
"Y. c #1800A7",
"T. c #0000B6",
"R. c #0C00B4",
"E. c #1900BA",
"W. c #3900A5",
"Q. c #2A00BA",
"!. c #3C00B6",
"~. c #3400BF",
"^. c #3900BA",
"/. c #3200B6",
"(. c #2A00A5",
"). c #4B008C",
"_. c #42008B",
"`. c #59008B",
"'. c #47009A",
"]. c #530097",
"[. c #5C0095",
"{. c #54009E",
"}. c #590099",
"|. c #6C0085",
" X c #64008D",
".X c #680089",
"XX c #660086",
"oX c #710080",
"OX c #600091",
"+X c #4D00A6",
"@X c #4400AE",
"#X c #4900AA",
"$X c #5100A1",
"%X c #4100B2",
"&X c #0300C2",
"*X c #0100CA",
"=X c #0B00CC",
"-X c #0000D5",
";X c #0500DB",
":X c #1C00D7",
">X c #1300DA",
",X c #1900DB",
"<X c #1300CB",
"1X c #2D00C7",
"2X c #2400CF",
"3X c #2900CB",
"4X c #3100C2",
"5X c #2000D3",
"6X c #0900E4",
"7X c #0A00EA",
"8X c #0400E6",
"9X c #1300E2",
"0X c #0400F3",
"qX c #0800F0",
/* pixels */
"                                                                                                                                ",
"                                                    & 6 6 8 8 9 9 9 7 7 4 + +                                                   ",
"                                          : Z S Y ( / ) _ |  .o.+.X.{ [ ~ ^ ! ! j f #                                           ",
"                                    < D I J.).].}.OXOXOX XoXoXo.O.X.Z.B.V.C.C.x.l.g.d.l g #                                     ",
"                                M I K.@X#X+X$X{.}.[. X XXX|.oXo.O.X.Z.B.V.N.C.x.c.m.m.b.,.>.k u                                 ",
"                            M T (.!.%X%X#X+X$X{.}.[.[. X.X|.oXo.O.X.Z.B.V.N.C.x.z.z.m.b.n.v.3.,.k $                             ",
"                        ; K (.~.^.!.%X@X#X+X$X{.}.[.[. X.X|. .o.O.X.Z.B.V.N.C.x.c.z.b.b.n.n.5.5.6.<.i                           ",
"                      m G.Q.4X4X^.!.%X%X#X+X$X{.}.[. X X.X|.oXoXO.X.X.B.V.N.C.x.c.m.m.b.n.v.5.5.4.4.1.s X                       ",
"                    V Y.3X1X4X4X^.!.!.@X#X+X$X{.}.[.OX X.X|.oXo.O.X.Z.B.V.N.C.x.c.z.b.b.n.v.5.5.4.4.s.s.%.o                     ",
"                  G Q.5X3X1X4X4X^.!.@X@X#X+X$X{.}.[.[. X.X|.oXo.O.X.X.V.M.N.C.x.c.z.b.b.v.v.5.5.4.4.s.s.s.&.e                   ",
"                G <X5X2X3X4X4X4X^.!.%X@X#X+X$X{.}.[.OX X.X|.oXo.O.X.B.B.V.N.C.x.c.m.h.b.v.v.5.5.4.4.s.s.a.a.&.e                 ",
"              V E.:X5X3X3X4X4X4X^.!.%X@X#X+X$X{.}.[.OX X.X|.oXo.O.X.X.B.V.N.C.x.c.z.m.b.v.v.5.5.4.4.s.s.a.a.q.&.%               ",
"            b Y.9X5X5X2X3X1X4X4X^.!.%X@X#X+X$X{.}.[. X X.X|.oXo.O.X.Z.B.V.N.C.x.c.z.m.b.n.v.5.5.4.4.s.s.a.a.e.q.s               ",
"            S.,X9X5X5X2X3X1X4X4X^.!.%X@X#X+X$X{.}.[.[. X.X|.oXo.O.X.Z.B.V.N.C.x.c.z.h.n.v.v.5.5.4.4.s.s.a.a.e.e.;.p             ",
"          H <X9X5X5X5X2X3X1X4X4X^.!.!.@X#X+X$X{.}.[. X X.X|.oXo.O.X.Z.B.V.N.C.x.c.z.b.b.v.v.5.5.4.4.s.s.s.a.e.r.w.=..           ",
"        ; U.9X9X5X9X5X2X3X4X4X^.^.!.%X@X#X+X$X].}.[.[. X.X|.oXo.O.X.Z.B.V.N.C.x.c.z.b.b.n.v.5.5.4.4.s.s.a.a.e.r.w.q.a           ",
"        H =X9X9X,X:X5X2X3X1X4X~.^.!.%X@X#X+X$X{.}.}.OX X|.| ..} ' ] { B.N.N.C.x.c.z.b.b.v.v.5.5.4.4.s.s.a.a.e.e.w.w.=.q         ",
"        U.7X9X9X,X:X5X2X3X1X4X~.^.!.%X@X#X+X$X{.}.}.`.) W A 8 1 2 1 3 h Q ~ C.x.z.z.b.b.v.v.5.5.4.4.s.s.a.a.a.e.w.y.0.a         ",
"      B =X7X9X9X,X:X5X2X3X1X4X~.^.!.%X@X#X+X$X{.{.` A &                   3 ! l.c.z.b.b.b.v.5.5.4.4.s.s.a.a.e.r.w.w.u.=.q       ",
"      J ;X7X9X9X,X:X5X2X3X1X4X4X^.!.%X@X#X+X$X]./ <                         + z l.z.b.b.v.v.5.4.4.4.s.s.a.a.e.e.e.w.y.r.p       ",
"      F.7X7X9X9X,X:X5X2X3X1X4X~.^.!.!.@X#X+X+XR *                             + x z.b.b.v.v.5.5.4.4.s.s.a.a.e.e.w.w.y.y.#.      ",
"    N &XqX7X9X9X,X:X5X2X3X1X4X~.^.!.@X@X#X+X_.6                                 # d.b.b.v.v.v.5.4.4.s.s.a.a.e.e.w.w.y.u.=..     ",
"    H 8XqX9X9X9X,X:X5X2X3X1X4X~.^.!.@X@X#X+XS                                     j h.m.v.v.5.5.4.4.s.s.a.a.e.e.r.w.y.u.8.t     ",
"    A.8X7X7X9X9X,X:X5X2X3X1X4X~.^.!.!.@X#XJ.:                                     # f.b.v.v.5.5.4.4.s.s.a.a.e.e.w.w.y.i.0.a     ",
"    F.0X7X7X9X9X,X:X:X2X3X1X4X~.^.!.!.@X@XP                                         l b.n.v.5.5.4.s.s.s.a.a.e.e.w.w.y.u.i.@.    ",
"    I.0X7X7X9X9X,X:X5X2X3X1X4X~.^.!.%X@X+XS                                         g b.v.v.5.5.4.4.s.s.a.a.e.e.w.w.0.y.t.$.    ",
"  - T.0XqX6X9X,X,X:X5X2X3X1X4X~.^.!.%X@XK.<                                         u h.n.v.5.5.4.4.s.s.a.a.e.e.w.w.y.u.t.*..   ",
"  b &X0XqX7X9X9X,X:X5X2X3X1X4X~.^.!.%X@XR =                                         @ >.n.v.5.5.4.4.s.s.a.a.e.e.w.w.y.y.t.-..   ",
"  N *X0XqX6X9X9X,X:X5X2X3X1X4X~.^.!.%X@XR                                           @ c n.v.v.4.4.4.s.s.a.a.e.e.w.w.y.y.t.8.w   ",
"  N -X0X7X7X9X9X,X:X5X2X3X1X4X~.^.!.%X@XI                                             c n.v.v.5.5.4.s.s.a.a.e.e.w.w.0.u.t.7.r   ",
"  B -X0X7X7X9X9X,X:X5X2X3X1X4X~.^.!.%X@XP                                             c n.v.4.5.4.s.s.s.a.a.e.e.w.w.0.u.i.9.r   ",
"  B -X0XqX6X9X9X,X:X5X2X3X1X4X~.^.!.%X@XP                                             c n.v.v.v.4.4.s.s.a.a.e.e.w.w.y.u.t.9.t   ",
"  B -X0X7X7X9X9X,X:X5X2X3X1X4X~.^.!.%X@XP                                             l v.v.5.5.4.4.s.s.a.a.e.e.w.w.y.y.i.9.t   ",
"  N -X0X7X7X9X9X,X:X5X2X3X1X4X~.^.!.%X@XP                                             c v.v.5.5.4.4.s.s.a.a.e.e.w.w.y.y.t.7.r   ",
"  n *X0X7X7X9X9X,X:X5X2X3X1X4X~.^.!.%X@XI                                             l n.v.5.5.4.s.s.s.a.a.e.e.w.w.y.y.t.8.w   ",
"  b &X0X7X7X9X9X,X:X:X2X3X1X4X~.^.!.%X%XR                                           + v n.v.5.5.4.4.s.s.a.a.e.e.w.w.y.y.t.-.q   ",
"  - T.0X7X7X9X9X,X:X5X2X3X1X4X~.^.!.%X%XK.:                                         # >.v.v.5.5.4.4.s.s.a.a.e.e.w.w.0.u.t.*..   ",
"    I.0X7X7X9X>X,X:X5X2X3X1X4X~.^.!.%X#X+XC                                         u h.v.v.5.5.4.4.s.s.a.a.e.r.w.w.y.u.t.=.    ",
"    D.0X7X7X9X9X,X:X5X2X3X1X4X~.^.!.%X@X#XI                                         g b.v.v.5.5.4.4.s.s.a.a.e.e.w.w.0.u.i.@.    ",
"    A.8X7X7X7X,X,X:X5X2X3X1X4X~.^.!.!.@X#X_.<                                     + v b.v.v.5.5.5.4.s.s.a.a.e.r.w.w.y.i.0.a     ",
"    H 8XqX7X9X>X,X:X5X2X3X1X4X~.^.!.%X@X#X+XP                                     f g.b.n.v.5.5.4.4.s.a.a.a.e.w.w.w.0.u.9.p     ",
"    V *XqX6X9X9X,X:X5X2X3X1X4X~.^.!.%X@X#X+X].S                                 + l b.b.v.v.5.5.4.4.s.s.a.a.e.e.w.w.y.i.*.e     ",
"      I.7X7X9X9X,X:X5X2X3X1X~.~.^.!.%X@X#X+X$X).Z                               j l.h.b.v.v.5.5.4.4.s.s.s.a.e.e.w.w.y.y.@.      ",
"      A.7X7X9X9X,X:X:X2X3X1X4X~.^.!.%X@X#X+X$X{.).F &                         j k.m.m.b.v.v.5.5.4.4.s.s.a.a.e.e.w.w.y.r.p       ",
"      H -X7X9X9X,X:X5X2X3X1X4X~.^.!.!.@X#X+X$X{.}.[./ A 2                 3 ! k.c.z.b.b.v.v.5.5.4.4.s.s.a.a.e.e.w.w.y.-.w       ",
"      b U.7X9X9X,X:X5X2X3X1X4X~.^.!.%X@X#X+X$X{.}.OXOX_ ` W A 8 0 0 h h ! ~ j.x.z.z.b.b.v.v.5.5.5.4.s.s.a.a.a.r.r.w.w.@.        ",
"        A.9X9X9X,X:X5X2X3X1X4X~.^.!.@X@X#X+X$X{.}.}.OXOX|. . .} ' ] { B.M.N.C.x.c.z.b.b.v.v.5.5.4.4.s.s.a.a.e.e.w.w.;.t         ",
"        n R.9X9X,X:X5X2X3X1X4X~.^.!.!.@X#X+X$X{.}.OXOX X.X|.oXo.o.X.Z.B.V.N.C.x.c.z.b.b.v.v.5.5.4.4.s.s.a.a.e.r.w.w.$.          ",
"          S.>X9X,X:X2X2X3X1X1X~.^.!.%X@X#X+X$X{.}.[.OX X.X|.oXo.O.X.X.B.V.N.C.x.c.z.b.b.v.v.5.4.4.4.s.s.a.a.e.e.w.;.y           ",
"          b R.,X,X:X:X2X3X1X~.~.^.!.%X@X#X+X$X{.}.[.[. X.X|.oXo.O.X.X.B.V.N.C.x.c.z.b.b.n.v.5.5.4.4.s.s.a.a.e.e.e.#.            ",
"            G <X,X:X:X2X3X1X~.~.^.!.%X@X#X+X$X{.}.[. X X.X|.oXo.O.X.B.B.V.N.x.x.c.z.m.b.n.v.v.5.4.4.s.s.a.a.a.q.:..             ",
"              S.,X:X2X2X3X1X1X~.^.!.%X@X#X+X$X{.}.[.[. X.X|.oXo.O.X.X.B.V.N.N.x.z.z.h.b.n.v.5.4.4.4.s.s.a.a.e.;.y               ",
"              - G.:X5X2X3X1X~.~.^.!.%X@X#X+X$X{.}.[. X XXX|.oXo.O.X.B.V.V.N.C.x.z.z.b.n.v.v.5.5.4.4.s.s.a.a.q.a                 ",
"                b Y.5X2X3X1X1X~.^.!.%X%X#X$X$X{.}.[.[. X.X|.oXo.O.X.X.B.V.N.C.x.c.z.h.b.v.v.v.5.4.4.s.s.a.p.s                   ",
"                  m G.5X1X1X~.~.^.!.%X%X#X+X$X{.}.[. X X.X|.|.o.O.X.B.B.V.N.C.x.z.z.m.b.n.v.5.5.4.4.s.s.p.%.X                   ",
"                    b G.1X1X1X~.!.!.%X%X#X+X$X{.}.[.[..X.X|.o.o.O.X.X.B.V.N.x.x.c.z.b.b.v.v.5.5.4.4.s.2.s X                     ",
"                      ; H.Q.4X4X^.!.%X@X#X+X$X$X}.[.OX X.X|.oXoXO.X.B.B.M.N.N.l.c.z.b.b.v.v.v.4.4.4.1.d                         ",
"                          L L.~.^.!.%X@X#X+X$X}.}.[.OX X.X|.oXo.O.X.X.B.V.N.C.x.c.z.b.b.v.v.5.5.6.<.i                           ",
"                            , K L.W.%X@X#X+X$X$X}.[.OX X.X|.oXo.O.X.B.B.V.N.C.x.c.z.b.b.n.5.3.,.k X                             ",
"                                M U K.P.#X+X$X$X}.[.OX X.X|.oXo.O.X.X.V.V.N.C.x.c.m.m.b.b.>.k $                                 ",
"                                    < D P R ).].}.}.OX X.X|.oXo.O.X.Z.B.V.N.C.C.c.g.d.l g #                                     ",
"                                          = C S F / ` ) _ |  .+.+.X.{ [ ~ ^ ! ! j f #                                           ",
"                                                    & * 6 5 8 9 9 9 7 7 4 4 +                                                   ",
"                                                                                                                                "
};
