/* XPM */
static char *deee5b42d88846b1d86faf8a01ee1249JFND29h2vrxQ6sTK[] = {
/* columns rows colors chars-per-pixel */
"16 16 103 2 ",
"   c None",
".  c #6F003B",
"X  c #760036",
"o  c #770037",
"O  c #70003B",
"+  c #36007C",
"@  c #71004E",
"#  c #68005D",
"$  c #69005F",
"%  c #780050",
"&  c #5B006C",
"*  c #5C006E",
"=  c #4A0073",
"-  c #4B0073",
";  c #4F007E",
":  c #7C0070",
">  c #7F0073",
",  c #9D000F",
"<  c #9E001C",
"1  c #AE0004",
"2  c #B20004",
"3  c #BA0004",
"4  c #BB0004",
"5  c #A2001C",
"6  c #8A0026",
"7  c #8B0026",
"8  c #9D003C",
"9  c #A9003F",
"0  c #B90030",
"q  c #BA0030",
"w  c #BF0031",
"e  c #C00010",
"r  c #C50010",
"t  c #D50010",
"y  c #D70010",
"u  c #DD0010",
"i  c #DF0010",
"p  c #C70020",
"a  c #C90020",
"s  c #CF0021",
"d  c #D00020",
"f  c #C00031",
"g  c #890043",
"h  c #8C0045",
"j  c #810057",
"k  c #9B0050",
"l  c #9C0050",
"z  c #9E0051",
"x  c #9F0052",
"c  c #AC0040",
"v  c #AF0041",
"b  c #AF0042",
"n  c #B00042",
"m  c #8E0062",
"M  c #8F0062",
"N  c #8F0063",
"B  c #250090",
"V  c #250093",
"C  c #0400A5",
"Z  c #0E00A4",
"A  c #0F00AA",
"S  c #1B00A9",
"D  c #1B00AD",
"F  c #0300B6",
"G  c #0300B9",
"H  c #3900A2",
"J  c #3A00A3",
"K  c #3C00AD",
"L  c #3C00AE",
"P  c #3E00B1",
"I  c #3E00B2",
"U  c #3F00B5",
"Y  c #3F00B6",
"T  c #40008D",
"R  c #58008A",
"E  c #460096",
"W  c #4D009F",
"Q  c #5E0093",
"!  c #5F0094",
"~  c #6D0081",
"^  c #6F0083",
"/  c #6F0084",
"(  c #4D00A0",
")  c #4E00A1",
"_  c #4F00A4",
"`  c #0300C0",
"'  c #0300C1",
"]  c #0F00CC",
"[  c #0F00D0",
"{  c #0F00DE",
"}  c #1E00D0",
"|  c #1E00D2",
" . c #1F00D5",
".. c #1F00D6",
"X. c #1F00D7",
"o. c #2E00C1",
"O. c #2E00C2",
"+. c #2F00C5",
"@. c #2F00C6",
"#. c #0F00E0",
"$. c #0F00E4",
"%. c #0F00E5",
"&. c #0F00E6",
/* pixels */
"            - & $ @ .           ",
"      V J _ ! / > N k 8 7       ",
"    D O.o._ ! ~ > N z n q 5     ",
"  A | @._ _ ! ~ : N z n w a ,   ",
"  [ ..@._ _ ;     % k b w d r   ",
"C #...O.P H         g b w s y   ",
"G &. .@.L           X c w d u 2 ",
"' &. .@.L             c w d u 4 ",
"G &. .@.L             9 w s u 4 ",
"G &. .@.I +         X b w s u 1 ",
"  #.X.@._ J         h b w s y   ",
"  ] X.@.Y _ R * # j z b w d e   ",
"  Z | @.Y _ Q / N N z b f p     ",
"    S O.Y _ ! ~ > N z n q <     ",
"      V H W Q / > m k 8 7       ",
"            = & $ # O           "
};
