/* XPM */
static char *bec8a5a6d19b443fa060849eac745a12hMayK5FCQ1VJqb6A[] = {
/* columns rows colors chars-per-pixel */
"32 32 225 2 ",
"   c None",
".  c #540019",
"X  c #6E000B",
"o  c #720003",
"O  c #7E0003",
"+  c #7E000D",
"@  c #73001B",
"#  c #76001C",
"$  c #490026",
"%  c #53002C",
"&  c #63002D",
"*  c #62002F",
"=  c #630030",
"-  c #6B0030",
";  c #6C0031",
":  c #740035",
">  c #750035",
",  c #72003F",
"<  c #180057",
"1  c #3D004E",
"2  c #060068",
"3  c #1A0061",
"4  c #07007A",
"5  c #1B007D",
"6  c #2B0061",
"7  c #2A0064",
"8  c #2A0065",
"9  c #2D0064",
"0  c #2C0069",
"q  c #380060",
"w  c #35006A",
"e  c #3A006F",
"r  c #300070",
"t  c #3B0071",
"y  c #330078",
"u  c #3E007A",
"i  c #590041",
"p  c #6A0043",
"a  c #730040",
"s  c #760040",
"d  c #620053",
"f  c #60005C",
"g  c #7A0059",
"h  c #7E005D",
"j  c #7F005E",
"k  c #560060",
"l  c #520069",
"z  c #420070",
"x  c #4D0071",
"c  c #4C007F",
"v  c #6E006A",
"b  c #7C0069",
"n  c #7D006A",
"m  c #6B0077",
"M  c #64007F",
"N  c #6E007A",
"B  c #760072",
"V  c #7B0077",
"C  c #73007F",
"Z  c #7C0078",
"A  c #8A0009",
"S  c #910004",
"D  c #9D0004",
"F  c #9B0009",
"G  c #8A0014",
"H  c #89001A",
"J  c #940015",
"K  c #92001B",
"L  c #AF0004",
"P  c #BE0004",
"I  c #BC000B",
"U  c #B80011",
"Y  c #81002D",
"T  c #84003E",
"R  c #87003F",
"E  c #9B003F",
"W  c #BB002B",
"Q  c #BE002C",
"!  c #AA0030",
"~  c #AB0031",
"^  c #BB0035",
"/  c #BC0035",
"(  c #B3003D",
")  c #B4003D",
"_  c #CB0004",
"`  c #CF0004",
"'  c #C8000B",
"]  c #D10004",
"[  c #D40004",
"{  c #D90004",
"}  c #DB0004",
"|  c #D7000B",
" . c #DD000B",
".. c #C40012",
"X. c #C6001B",
"o. c #CC001B",
"O. c #D90014",
"+. c #DB0014",
"@. c #DC0014",
"#. c #DD0014",
"$. c #D3001C",
"%. c #D4001C",
"&. c #D5001C",
"*. c #E3000C",
"=. c #E4000C",
"-. c #E5000C",
";. c #C70024",
":. c #C90024",
">. c #CA0025",
",. c #CB0025",
"<. c #C3002D",
"1. c #C4002D",
"2. c #850049",
"3. c #9C0040",
"4. c #980048",
"5. c #9C004A",
"6. c #800052",
"7. c #810052",
"8. c #810053",
"9. c #980054",
"0. c #9B0056",
"q. c #9C0056",
"w. c #9D0057",
"e. c #92005E",
"r. c #93005E",
"t. c #94005F",
"y. c #A90045",
"u. c #AB0046",
"i. c #AC0046",
"p. c #A1004D",
"a. c #A3004E",
"s. c #A4004E",
"d. c #8A0065",
"f. c #8B0066",
"g. c #8B0067",
"h. c #8C0067",
"j. c #83006F",
"k. c #840070",
"l. c #030080",
"z. c #03008D",
"x. c #0D008A",
"c. c #1D0087",
"v. c #03009F",
"b. c #0E009C",
"n. c #1B009D",
"m. c #2B0085",
"M. c #2C0089",
"N. c #3A0085",
"B. c #3C009E",
"V. c #0900A2",
"C. c #0300AB",
"Z. c #1500A2",
"A. c #1C00A6",
"S. c #1600AE",
"D. c #0900B2",
"F. c #0300BE",
"G. c #3D00A1",
"H. c #2F00B1",
"J. c #3000B6",
"K. c #3B00B9",
"L. c #3B00BA",
"P. c #3B00BB",
"I. c #4D0080",
"U. c #590081",
"Y. c #5A0083",
"T. c #400092",
"R. c #44009C",
"E. c #4F0099",
"W. c #590094",
"Q. c #51009D",
"!. c #5B0098",
"~. c #5C0099",
"^. c #680085",
"/. c #6B0087",
"(. c #6B0088",
"). c #6C0089",
"_. c #730080",
"`. c #630090",
"'. c #630091",
"]. c #640091",
"[. c #4900A5",
"{. c #4A00A6",
"}. c #4A00A7",
"|. c #4100AC",
" X c #4200AE",
".X c #4300AF",
"XX c #4B00A9",
"oX c #5300A0",
"OX c #5300A1",
"+X c #5400A1",
"@X c #5400A2",
"#X c #4300B1",
"$X c #4400B1",
"%X c #4400B2",
"&X c #0300CC",
"*X c #0A00CF",
"=X c #1100CF",
"-X c #0300D5",
";X c #0300D7",
":X c #0300D8",
">X c #0300DC",
",X c #0A00D8",
"<X c #1B00D5",
"1X c #1200D8",
"2X c #1B00D9",
"3X c #1B00DA",
"4X c #1B00DB",
"5X c #2A00C6",
"6X c #2A00C8",
"7X c #2B00C9",
"8X c #2B00CA",
"9X c #3300C1",
"0X c #3300C2",
"qX c #2300D2",
"wX c #2300D3",
"eX c #0300E0",
"rX c #0300E2",
"tX c #0B00E4",
"yX c #0B00E8",
"uX c #0B00EB",
"iX c #0B00EC",
"pX c #0B00ED",
"aX c #1300E2",
"sX c #1300E3",
"dX c #1300E4",
/* pixels */
"                                                                ",
"                    9 t I.U.M N B n h 6., &                     ",
"              3 M.G.}.@X~.].(._.V j.g.t.q.a.E Y .               ",
"            c.J.P.$XXXoX!.`.(.C V j.g.r.0.a.u.) ~ #             ",
"          A.6X0XK.#XXXoX!.`./.C V j.g.r.0.a.u.( / Q K           ",
"        S.wX6X0XK.#XXXoX!.`./.C V j.g.r.0.a.u.( ^ <.>.J         ",
"      b.2XqX8X9XK.#XXXoX!.`.(._.V j.h.r.0.a.u.( ^ <.>.o.+       ",
"    4 1X2XqX8X9XK.#XXXoX!.`.)._.V j.h.r.0.a.u.( ^ <.>.%...      ",
"    D.dX2XqX8X9XK.$XXXoX~.Y.l k f d g r.0.a.u.( ^ <.>.$.@.F     ",
"    ,XdX2XqX8X9XK.$XXXQ.z             p 0.a.u.( ^ <.>.$.@.'     ",
"  z.yXaX2XqX8X9XK.#XXXu                 , a.u.( ^ <.>.$.@. .O   ",
"  C.pXaX2XqX6X9XK.$XR.                  $ 4.u.( ^ <.>.$.+.-.D   ",
"  &XpXaX2XqX8X9XK.$XN.                    T i.( ^ <.>.$.+.-.P   ",
"  ;XpXaX2XqX8X9XK.#Xr                     : u.( ^ <.>.$.+.-.`   ",
"  >XpXaX2XqX8X9XK.|.0                     & u.( ^ <.>.$.+.*.[   ",
"  rXyXaX4XqX8X9XK.|.8                     - u.( ^ <.>.$.+.-.}   ",
"  rXpXaX2XqX8X9XK.|.8                     ; u.( ^ <.>.$.+.=.{   ",
"  :XyXaX2XqX6X9XK.$X0                     & u.( ^ <.>.$.+.=.]   ",
"  ;XpXaX2XqX8X9XK.$Xy                     : u.( ^ <.>.$.+.-._   ",
"  F.pXaX2XqX8X9XK.$XT.                    T i.( ^ <.>.$.+.-.L   ",
"  v.pXaX4XqX8X9XK.#XXXw                 % 5.u.( ^ <.>.$.+.*.S   ",
"  l.tXaX2XqX8X9XK.#XXXE.q               2.s.u.( ^ <.>.$.@.| o   ",
"    *XaX2XqX6X0XK.#XXXoXW.x 1       i 6.q.a.u.( ^ <.>.$.@.I     ",
"    V.aX2XqX6X0XK.#XXXoXW.`./.m v n g.r.0.a.u.( ^ <.>.$.+.A     ",
"    2 =X4XqX8X9XK.#XXX@X!.`./.C V j.g.r.0.a.u.( ^ <.>.%.U       ",
"      x.<XqX8X9XK.#XXXQ.!.`./.C V j.g.r.0.a.u.( ^ <.>.X.X       ",
"        Z.qX8X9XK.#XXX@X!.`./.C V j.g.r.0.a.u.( ^ 1.;.G         ",
"          n.5X9XK.#XXX@X!.`./.C V j.g.r.0.a.u.( / W H           ",
"            5 J.K.$XXXQ.!.`./.C V j.g.r.0.a.u.) ~ @             ",
"              < m.B.}.@X~.].)._.V j.g.t.q.a.3.Y                 ",
"                    6 e c U.M N B n h 6.a =                     ",
"                                                                "
};
