<?xml version="1.0" standalone="yes"?>
<svg width="466" height="466">
<path style="fill:#000000; stroke:none;" d="M0 0L0 466L466 466L466 0L0 0z"/>
<path style="fill:#490053; stroke:none;" d="M213 12L213 13L226 13L213 12z"/>
<path style="fill:#74007f; stroke:none;" d="M217 13L217 125L240 124L240 50L241 12L217 13z"/>
<path style="fill:#85006e; stroke:none;" d="M240 124L271 131L270 91L270 14C263.177 13.4615 247.509 8.35074 241.603 13.0278C237.058 16.6277 240 35.479 240 41L240 124z"/>
<path style="fill:#67008d; stroke:none;" d="M197 14L197 132L217 126L217 13L197 14z"/>
<path style="fill:#350028; stroke:none;" d="M265 13L265 14L269 14L265 13z"/>
<path style="fill:#33004b; stroke:none;" d="M193 14L193 15L197 15L193 14z"/>
<path style="fill:#a5004c; stroke:none;" d="M270 14L270 93C270 103.74 267.316 118.613 270.434 128.895C271.663 132.951 276.829 135.02 280 137.378C285.858 141.734 290.945 147.067 295.215 153C308.61 171.611 313.694 195.549 315.83 218C318.029 241.102 314.52 265.17 307.102 286.985C304.664 294.154 298.49 300.498 297.225 308C294.774 322.527 297 339.26 297 354L297 447C303.324 446.865 320.223 444.224 323.972 438.581C327.48 433.301 325 420.206 325 414L325 348L325 113L325 52C325 45.1722 322.764 33.5912 327 28C312.547 18.9052 286.917 14.3492 270 14z"/>
<path style="fill:#59009b; stroke:none;" d="M166 19L166 20L169 20L169 154L170 154L186 138.591L196.397 130.671L197 97L197 15L166 19z"/>
<path style="fill:#4800ad; stroke:none;" d="M121 34L121 35L124 35L124 334L124 406C124 412.204 126.685 426.314 121 430L121 431C134.847 436.371 149.87 444.678 165 445L165 345C165 329.037 166.839 311.833 164.867 296C163.47 284.778 154.743 273.1 151.546 262C148.179 250.314 148.719 237.072 149.015 225C149.431 208.016 152.808 190.008 158.696 174C161.312 166.886 167.911 160.582 168.867 153C170.66 138.788 169 123.33 169 109L169 20C151.904 20.1415 136.987 29.4299 121 34z"/>
<path style="fill:#b6003c; stroke:none;" d="M325 28L325 439L364 420C359.904 412.635 362 401.233 362 393L362 332L362 127L362 71C362 63.2489 360.137 52.9454 364 46C352.98 38.7081 338.438 29.1807 325 28z"/>
<path style="fill:#2d00c8; stroke:none;" d="M81 59L81 60L84 59L84 295L84 369L83 407C94.4486 415.23 109.285 429.237 124 430L124 35C108.743 35.7914 92.7488 50.2922 81 59z"/>
<path style="fill:#cf0021; stroke:none;" d="M362 47L362 419C380.909 414.556 395.391 391.184 408 378L406 360L406 318L406 154L406 103L408 87C402.222 74.6061 388.418 64.4978 378 56.0941C373.218 52.2367 368.228 47.8318 362 47z"/>
<path style="fill:#1800de; stroke:none;" d="M83 59C70.0702 65.896 54.7742 81.3587 49 95C52.6756 95 51 109.399 51 113L51 173L51 309C51 328.009 47.1593 351.497 50.5 370C51.066 373.135 54.3285 376.503 56.1667 379C62.5803 387.713 73.2775 402.896 84 406L84 161L84 90L83 59z"/>
<path style="fill:#e3000d; stroke:none;" d="M406 86L406 377C411.848 375.074 415.288 366.995 418.456 362C428.239 346.574 436.762 327.676 441.371 310C455.787 254.713 455.154 198.404 438.72 144C433.831 127.816 427.109 112.193 416.934 98.5756C413.463 93.9294 411.202 88.9387 406 86z"/>
<path style="fill:#0700f0; stroke:none;" d="M50 94C36.0158 106.534 31.2655 127.944 25.5363 145C8.58525 195.464 10.6738 254.4 22.3495 306C25.7122 320.861 31.8598 334.204 37.9969 348.004C41.2824 355.392 44.3592 364.066 51 369L51 175L51 119L50 94z"/>
<path style="fill:#95000d; stroke:none;" d="M415 96L417 99L415 96z"/>
<path style="fill:#3a003f; stroke:none;" d="M223 124L223 125L228 125L223 124z"/>
<path style="fill:#000000; stroke:none;" d="M228 124.424C209.786 126.816 193.306 130.575 179 143.184C157.91 161.773 152.727 189.474 150.91 216C149.462 237.146 149.251 259.848 157.373 279.91C173.353 319.384 212.967 338.707 254 332.792C296.34 326.688 312.389 285.684 314.039 248C315.996 203.315 309.509 127.289 249 124.989C241.903 124.719 235.14 123.487 228 124.424z"/>
<path style="fill:#46003f; stroke:none;" d="M243 124L243 125L249 125L243 124z"/>
<path style="fill:#430002; stroke:none;" d="M435 132L436 137L437 137L435 132z"/>
<path style="fill:#0400af; stroke:none;" d="M27 135L23 150L24 150L27 135z"/>
<path style="fill:#b10005; stroke:none;" d="M438 140L441 153L442 153L438 140z"/>
<path style="fill:#020091; stroke:none;" d="M21.3333 156.667L21.6667 157.333L21.3333 156.667z"/>
<path style="fill:#000040; stroke:none;" d="M19 160L18 170L19 170L19 160z"/>
<path style="fill:#450000; stroke:none;" d="M447 169L448 180L449 180L447 169z"/>
<path style="fill:#000047; stroke:none;" d="M17 170L17 175L18 175L17 170z"/>
<path style="fill:#58002d; stroke:none;" d="M305 171L306 175L307 175L305 171z"/>
<path style="fill:#0000a6; stroke:none;" d="M17 175L17 180L18 180L17 175z"/>
<path style="fill:#00004d; stroke:none;" d="M16 176L16 183L17 183L16 176z"/>
<path style="fill:#5b0000; stroke:none;" d="M449 183L450 192L451 192L449 183z"/>
<path style="fill:#00007e; stroke:none;" d="M15 186L15 193L16 193L15 186z"/>
<path style="fill:#c10000; stroke:none;" d="M450 192L450 264L451 264C451.931 242.312 458.783 212.736 450 192z"/>
<path style="fill:#0000af; stroke:none;" d="M14 194L14 206L15 206L14 194z"/>
<path style="fill:#530000; stroke:none;" d="M451 195L451 200L452 200L451 195z"/>
<path style="fill:#6c0033; stroke:none;" d="M313 200L314 215L315 215L313 200z"/>
<path style="fill:#000058; stroke:none;" d="M13 202L13 211L14 211L13 202z"/>
<path style="fill:#27005b; stroke:none;" d="M150 204L150 254L151 254L150.09 224L150 204z"/>
<path style="fill:#0000b7; stroke:none;" d="M13 211L13 245L14 245L13 211z"/>
<path style="fill:#5d002b; stroke:none;" d="M315 215L315 243L316 243L315 215z"/>
<path style="fill:#6f0034; stroke:none;" d="M314 243L312 268L313 268C315.113 261.045 316.88 249.863 314 243z"/>
<path style="fill:#0000aa; stroke:none;" d="M14 247L14 259L15 259L14 247z"/>
<path style="fill:#330075; stroke:none;" d="M151 257L152 265L153 265L151 257z"/>
<path style="fill:#3f0000; stroke:none;" d="M451 258L451 264L452 264L451 258z"/>
<path style="fill:#00005f; stroke:none;" d="M14 259L14 264L15 264L14 259z"/>
<path style="fill:#00008d; stroke:none;" d="M15 264L15 273L16 273L15 264z"/>
<path style="fill:#610000; stroke:none;" d="M450 264L450 270L451 270L450 264z"/>
<path style="fill:#8c0000; stroke:none;" d="M449 270L447 286L448 286L449 270z"/>
<path style="fill:#00009e; stroke:none;" d="M16 273L17 282L18 282L16 273z"/>
<path style="fill:#000066; stroke:none;" d="M17 282L19 295L20 295L17 282z"/>
<path style="fill:#570001; stroke:none;" d="M446 287L446 291L447 291L446 287z"/>
<path style="fill:#5a0099; stroke:none;" d="M165 295L165 404C165 414.161 169.169 436.857 163 445L163 446L184 449L184 355C184 344.548 187.713 325.705 183.687 316.17C180.792 309.313 170.319 300.485 165 295z"/>
<path style="fill:#01008c; stroke:none;" d="M20.3333 297.667L20.6667 298.333L20.3333 297.667z"/>
<path style="fill:#690001; stroke:none;" d="M442.333 305.667L442.667 306.333L442.333 305.667z"/>
<path style="fill:#01007d; stroke:none;" d="M22 306L22 309L23 309L22 306z"/>
<path style="fill:#8b0068; stroke:none;" d="M296 307C283.251 322.656 267.542 330.197 248 334L248 453L297 448L297 349C297 337.056 300.607 317.98 296 307z"/>
<path style="fill:#67008c; stroke:none;" d="M184 317L184 416C184 423.377 187.544 444.757 181 449L181 450L217 453L217 365C217 357.347 220.41 338.831 215.972 332.51C213.993 329.691 209.019 329.091 206 327.935C198.421 325.033 191.722 319.003 184 317z"/>
<path style="fill:#730003; stroke:none;" d="M437 320L437 323L438 323L437 320z"/>
<path style="fill:#04008b; stroke:none;" d="M27 322L27 325L28 325L27 322z"/>
<path style="fill:#010032; stroke:none;" d="M28 325L31 336L32 336L28 325z"/>
<path style="fill:#74007f; stroke:none;" d="M217 332L217 423C217 429.993 220.271 448.934 214 453L214 454L258 454L258 453L248 453L248 364C248 357.007 244.729 338.066 251 334L217 332z"/>
<path style="fill:#0700a6; stroke:none;" d="M35 342L37 348L38 348L35 342z"/>
<path style="fill:#650006; stroke:none;" d="M428.333 342.667L428.667 343.333L428.333 342.667z"/>
<path style="fill:#660006; stroke:none;" d="M427.333 344.667L427.667 345.333L427.333 344.667z"/>
<path style="fill:#550005; stroke:none;" d="M426 346L424 352L425 352L426 346z"/>
<path style="fill:#05006a; stroke:none;" d="M38.3333 349.667L38.6667 350.333L38.3333 349.667z"/>
<path style="fill:#050064; stroke:none;" d="M39.3333 351.667L39.6667 352.333L39.3333 351.667z"/>
<path style="fill:#400006; stroke:none;" d="M415 366L414 369L415 366z"/>
<path style="fill:#07005c; stroke:none;" d="M48 367L50 370L48 367z"/>
<path style="fill:#3c0029; stroke:none;" d="M274 451L274 452L279 452L274 451z"/>
<path style="fill:#3c004e; stroke:none;" d="M203 452L203 453L210 453L203 452z"/>
</svg>
