<?xml version="1.0" standalone="no"?>
<!DOCTYPE svg PUBLIC "-//W3C//DTD SVG 20010904//EN"
 "http://www.w3.org/TR/2001/REC-SVG-20010904/DTD/svg10.dtd">
<svg version="1.0" xmlns="http://www.w3.org/2000/svg"
 width="466.000000pt" height="466.000000pt" viewBox="0 0 466.000000 466.000000"
 preserveAspectRatio="xMidYMid meet">

<g transform="translate(0.000000,466.000000) scale(0.100000,-0.100000)"
fill="#000000" stroke="none">
<path d="M2135 4574 c-545 -42 -977 -185 -1295 -429 -444 -341 -688 -828 -739
-1474 -38 -469 13 -939 139 -1296 160 -450 467 -807 884 -1026 318 -167 694
-253 1161 -266 471 -13 808 50 1150 217 532 259 898 734 1059 1375 58 232 81
468 73 768 -9 332 -42 532 -133 800 -102 297 -255 539 -480 757 -133 129 -253
219 -393 297 -247 137 -494 217 -811 263 -76 11 -522 21 -615 14z m420 -1218
c205 -55 356 -195 446 -418 65 -158 96 -316 106 -533 21 -480 -122 -833 -394
-969 -188 -94 -434 -96 -655 -5 -379 156 -566 561 -507 1097 50 464 237 733
565 817 148 37 321 42 439 11z"/>
</g>
</svg>
